<?xml version="1.0" standalone="no"?>
<!DOCTYPE svg PUBLIC "-//W3C//DTD SVG 20010904//EN"
 "http://www.w3.org/TR/2001/REC-SVG-20010904/DTD/svg10.dtd">
<svg version="1.0" xmlns="http://www.w3.org/2000/svg"
 width="200.000000pt" height="200.000000pt" viewBox="0 0 200.000000 200.000000"
 preserveAspectRatio="xMidYMid meet">

<g transform="translate(0.000000,200.000000) scale(0.100000,-0.100000)"
fill="#000000" stroke="none">
<path d="M0 1000 l0 -1000 38 0 38 0 27 103 c88 329 117 554 127 987 5 216 12
349 20 375 19 63 71 185 78 184 4 0 33 -34 65 -75 l57 -74 -21 -63 c-55 -163
41 -306 224 -332 l49 -8 -7 -56 c-4 -31 -8 -57 -8 -57 -1 -1 -55 -32 -119 -69
-65 -36 -118 -68 -118 -70 0 -2 50 -32 111 -67 71 -40 126 -79 151 -108 72
-81 159 -292 248 -597 13 -46 26 -73 35 -73 9 0 22 27 35 73 90 311 174 513
248 597 25 29 75 65 134 98 150 83 149 69 12 147 -66 37 -120 68 -121 69 0 0
-4 26 -8 57 l-7 56 49 8 c183 26 279 170 224 333 l-21 63 57 69 c31 39 61 70
65 70 5 0 19 -25 33 -56 56 -127 58 -137 65 -494 10 -433 39 -657 127 -988
l27 -102 43 0 43 0 0 1000 0 1000 -337 0 -338 0 64 -37 c35 -21 88 -59 117
-85 49 -43 56 -46 85 -38 36 11 94 51 127 89 l23 26 -16 -40 c-60 -152 -301
-395 -509 -514 l-76 -43 -49 21 c-63 27 -119 27 -181 0 l-49 -21 -63 35 c-214
120 -460 366 -523 522 l-16 40 23 -26 c32 -36 86 -74 126 -87 30 -10 35 -9 90
39 31 28 84 66 117 85 l60 34 -337 0 -338 0 0 -1000z m711 305 l89 -53 -29
-12 c-35 -14 -116 -15 -152 -1 -59 22 -95 99 -73 155 5 14 11 13 41 -10 19
-14 75 -50 124 -79z m749 44 c0 -42 -27 -82 -72 -105 -35 -18 -120 -20 -163
-4 l-30 12 45 23 c25 13 81 48 125 78 86 58 95 58 95 -4z m-417 -83 c80 -34
127 -126 136 -263 3 -50 8 -93 11 -96 3 -2 29 -18 58 -34 l52 -30 -41 -28
c-94 -66 -169 -187 -225 -363 -16 -51 -31 -92 -34 -92 -3 0 -15 35 -28 78 -52
171 -148 327 -238 383 l-35 21 53 31 c29 16 55 32 58 34 3 2 8 43 11 91 4 48
12 106 19 130 22 71 104 150 158 152 7 0 27 -6 45 -14z"/>
</g>
</svg>
